<svg width="17" height="17" viewBox="0 0 17 17" fill="none" xmlns="http://www.w3.org/2000/svg">
<path fill-rule="evenodd" clip-rule="evenodd" d="M0.857526 16.0952C0.432552 15.6715 0.432552 14.9845 0.857526 14.5608L14.6916 0.767238C15.1165 0.343509 15.8055 0.343509 16.2305 0.767238C16.6555 1.19097 16.6555 1.87797 16.2305 2.3017L2.39649 16.0952C1.97152 16.519 1.2825 16.519 0.857526 16.0952Z" fill="#C99086"/>
<path fill-rule="evenodd" clip-rule="evenodd" d="M0.769458 0.904803C1.19443 0.481074 1.88345 0.481074 2.30842 0.904803L16.1424 14.6983C16.5674 15.1221 16.5674 15.8091 16.1424 16.2328C15.7175 16.6565 15.0285 16.6565 14.6035 16.2328L0.769458 2.43926C0.344485 2.01553 0.344485 1.32853 0.769458 0.904803Z" fill="#C99086"/>
</svg>
